<?xml version="1.0" standalone="no"?>
<!DOCTYPE svg PUBLIC "-//W3C//DTD SVG 20010904//EN"
 "http://www.w3.org/TR/2001/REC-SVG-20010904/DTD/svg10.dtd">
<svg version="1.0" xmlns="http://www.w3.org/2000/svg"
 width="426.000000pt" height="426.000000pt" viewBox="0 0 426.000000 426.000000"
 preserveAspectRatio="xMidYMid meet">
<metadata>
Created by potrace 1.14, written by Peter Selinger 2001-2017
</metadata>
<g transform="translate(0.000000,426.000000) scale(0.100000,-0.100000)"
fill="#000000" stroke="none">
<path d="M2037 4254 c-1 -1 -38 -5 -82 -8 -313 -22 -631 -124 -910 -289 -285
-170 -548 -428 -724 -710 -138 -223 -251 -523 -287 -767 -3 -19 -7 -46 -10
-60 -34 -197 -19 -553 33 -755 8 -33 16 -67 18 -75 9 -46 42 -147 77 -235 299
-755 984 -1265 1799 -1340 55 -6 299 -5 359 0 124 11 158 16 310 50 123 27
294 88 435 155 77 36 290 162 305 179 3 4 30 25 60 47 289 215 551 562 685
907 39 103 90 274 105 357 6 30 12 66 15 80 3 14 7 48 10 75 3 28 8 68 10 90
6 50 6 312 1 345 -2 14 -7 54 -11 90 -9 94 -42 250 -77 365 -83 269 -211 507
-396 735 -34 41 -234 242 -264 265 -7 6 -36 29 -64 53 -29 23 -56 42 -62 42
-6 0 -12 4 -14 9 -5 13 -183 123 -273 168 -143 72 -380 157 -495 178 -14 3
-36 7 -50 10 -14 3 -43 8 -65 11 -22 3 -50 7 -63 9 -75 12 -367 27 -375 19z"/>
</g>
</svg>
